<svg xmlns="http://www.w3.org/2000/svg" xmlns:xlink="http://www.w3.org/1999/xlink" viewBox="0 0 1080.56 383.61"><defs><style>.a{fill:#666;}.b{fill:url(#a);}</style><linearGradient id="a" x1="606.33" y1="564.53" x2="606.33" y2="948.14" gradientUnits="userSpaceOnUse"><stop offset="0" stop-color="#29abe2"/><stop offset="1" stop-color="#7ac943"/></linearGradient></defs><title>logo-black</title><path class="a" d="M997.47,813.2q0,16.69-5.88,22.68t-22.33,6H898.52q-17.87,0-23.51-7.29-4.93-6.11-4.93-24.68l18.8-4.47V825h90.26V788.52H903q-20.21,0-25.38-10.34-2.82-5.64-2.82-28.91,0-16.68,5.87-22.68t22.33-6h64.64q16.68,0,22.56,6.11t5.88,23l-17.39,4.94V737.05H892.88v33.84h76.38q16.46,0,22.33,6.11t5.88,22.57Z" transform="translate(-406.02 -564.53)"/><path class="a" d="M1079,841.88h-20.22V720.6H1079Z" transform="translate(-406.02 -564.53)"/><path class="a" d="M1273.64,841.88h-22.33L1235.8,812h-82l-15.52,29.85h-20l66.28-121.28h21.62Zm-46.07-45.37-32.67-62-32.67,62Z" transform="translate(-406.02 -564.53)"/><path class="a" d="M1425,841.88H1312.89V720.6h20.21V825H1425Z" transform="translate(-406.02 -564.53)"/><path class="a" d="M1486.58,841.88h-20.21V720.6h20.21Z" transform="translate(-406.02 -564.53)"/><path class="b" d="M794.9,698.3c-1.47-1.16-1.24-3.56-3.49-4.48-1.29,4.59-.38,9.17,1.14,13.06,6.23,15.85,6.54,32.37,6.88,49,.41,19.62-1.62,39.08-2.83,58.61A72,72,0,0,1,786.36,847c-.08.13-.13.28-.22.41-1.4,2-2.76,4.84-5.51,4-3-1-2.75-4.19-2.46-6.82.79-7.3,3.42-14,6.71-20.52a15.88,15.88,0,0,0,1.68-5.22c2.3-17.76,2.54-35.61,2.78-53.49.23-16.56-1.37-32.93-3.24-49.31-.85-7.46-2.59-14.83-4-22.23a78,78,0,0,1-1.47-11.92c-.42-12.54-6.9-22-15.77-30.21-1.34-1.23-3.2-2.32-5.06-1.17s-1.3,3.09-1.05,4.68a31.1,31.1,0,0,0,6.11,14.33c4.66,5.91,5.91,12.75,7.14,19.63,2,11.19,3.94,22.42,5.12,33.72,1.41,13.61,3.13,27.22,2.86,41-.15,7.69.47,15.4.79,23.1a9.35,9.35,0,0,0,.57,3.16c5.52,13.63.4,25-7.74,35.55-2.4,3.12-5.41,5.73-9.88,4.47-4.82-1.35-7.08-5.43-7.62-9.63-1.26-9.88-1.35-19.82,5.54-28.2,1.89-2.3,2.35-4.9,2.34-7.77-.06-13.43,0-26.86,0-40.28a19.46,19.46,0,0,1,1.95-8.89c5.33-10.94-.72-30.44-11.15-36.68-7.2-4.3-15.92-1.33-18.44,6.73a31.73,31.73,0,0,0,4.43,28.63,17,17,0,0,1,3.19,9.78c.67,20.71-1.48,41.3-3.34,61.82-1.5,16.49-3.57,33-6.49,49.38-1.91,10.73-3.43,21.52-6,32.13-.54,2.25-.91,4.35,1.06,6.43,2.41,2.52,1.49,5.82,0,8.25-6.14,10.26-14.58,18-26.54,20.69-7.81,1.77-12.59-3.81-10.3-11.45a16.74,16.74,0,0,1,6.45-9.39c5.25-3.42,6.22-8.56,6.8-13.9,1.92-17.74,4-35.47,5.33-53.26.94-12.43,1-25,1.21-37.44q.71-38.18,0-76.39-.52-27.47-3.24-54.89c-.81-8.13-2.08-16.17-3-24.27-.18-1.54-.28-3.06.89-4.37,4.36-4.81,3.59-10.1.53-14.93-5.9-9.33-15.09-13.87-25.63-15.69-4.61-.79-9.32.63-11.8,4.71-2.66,4.34-1.09,9,1.76,13,.89,1.25,1.65,2.83,2.88,3.58,7.51,4.53,7.39,12.25,8,19.43,1.86,21,3.2,42.06,4.39,63.13.73,12.94.54,25.87,1.34,38.77,1,16.19,1,32.38.74,48.57-.21,16.48-.32,33-1.82,49.41-.19,2.06,1,3,2.26,4.24,6.1,5.87,7.19,14.27,3.22,21.94-4.31,8.35-11,14-19.5,17.53-12.72,5.3-28.4-3.08-29.93-16.69a19.36,19.36,0,0,1,7.14-17.76c4.35-3.42,5.29-7.53,5.48-12.81,1-27.15.91-54.3.89-81.45q0-33.29-.14-66.59c0-2.68-.1-5.43,2.26-7.19,11.38-8.46,8.27-29.32-6.28-37-9.78-5.15-19.76-6.43-29.54-.69-12.49,7.34-14.33,24.12-3.68,34.53,3.85,3.76,5,7.52,5,12.61-.14,40.12,0,80.25-.08,120.37,0,3.56.45,6.6,3.5,9,9.51,7.55,10.09,22.1,2.73,31.64-6.42,8.33-14.77,13.74-25.24,12.9S586.63,865.47,581,856.1s-3.87-23.94,5.44-29.87c2.32-1.48,2.59-3.6,2.58-6,0-8.34.05-16.67-.08-25a8.57,8.57,0,0,1,2.87-6.88c13.87-13.47,11.07-38.7-7.41-47.14-9.66-4.4-19.56-3.84-28.18,2.22-9.16,6.46-13.55,15.73-12.11,27.29a29.8,29.8,0,0,0,9,17.81,8.94,8.94,0,0,1,2.73,7c-.32,20.37,2.23,40.61,3.13,60.94s3.47,40.48,5.41,60.71c.32,3.36,1.15,6.67,1.72,10,.39,2.28,2.27,3.13,3.92,4.25,3.75,2.55,7.67,5.15,6.76,10.54-.56,3.36-5.76,5.81-11.54,6.1-10.63.53-19.51-3.58-27.45-10.21-3.73-3.12-5.84-7.89-.51-11.53,2.17-1.48,1.91-3.74,1.46-5.89-2.54-12.19-3.73-24.57-5.57-36.86-1.8-12.06-1.58-24.27-3.78-36.26a72.64,72.64,0,0,1-1.17-14.72c.3-13.61-1.65-27.08-2.13-40.64-1-27.3-1.07-54.6-.74-81.9.14-12,1-24,1.56-36,.13-2.82,1.49-4.83,3.47-6.77,5.33-5.2,9.1-11.11,8.82-19.06-.31-8.7-8.39-15.69-17-13.78-12.68,2.81-22.12,9.73-26.5,22.52-1.5,4.37-1.74,8.93,1.24,12.33,4.28,4.87,3.61,10.28,3.06,15.71-1.91,18.7-2.65,37.47-3.77,56.22-1.26,21,.38,41.92.41,62.87,0,8.3,1.07,16.61.9,24.95-.06,2.64,1.46,4.21,3.22,5.82,7.37,6.74,9.52,15.32,7.93,24.82-1.72,10.34-11.88,15.58-21,10.52-12.19-6.75-19.95-16.71-19.91-31.42,0-2.06.24-4.09,1.58-5.68,3.8-4.5,3.55-9.81,2.59-14.94-1.8-9.61-1.6-19.33-2.29-29-.45-6.3.1-12.64-.81-18.94a13.71,13.71,0,0,1,2.65-10c6.12-9,7.06-19,3.82-29.21-1.79-5.59-5.29-10.26-11.95-10.77-7.8-.6-12.51,4.32-15.57,10.35-5.22,10.29-5.81,21,.09,31.41,2,3.52,2.13,7.44,2.19,11.22.3,19.45,3.23,38.64,6.11,57.78a322.76,322.76,0,0,0,9.65,45.06,13.31,13.31,0,0,0,3.39,5.89,35.85,35.85,0,0,1,8.23,12.73c1,2.67,1.92,6.15-.92,8.11s-5.8.8-8.5-1.29a66,66,0,0,1-16-17.8,12.21,12.21,0,0,1-2.16-6c-.33-14.86-5.87-28.8-7.55-43.41q-1.85-16-3.76-32.08c-2.47-20.61-2.33-41.21-2.23-61.85.08-15.41,1.89-30.72,3.43-46,.33-3.31,2-5.73,3.59-8.36,3.67-6.11,7-12.37,6.76-19.8-.05-1.67.19-3.59-1.76-4.41A4.61,4.61,0,0,0,443.3,663c-8.55,8.57-14.51,18.32-13.8,31,.28,5-1.12,9.76-1.75,14.6a449.31,449.31,0,0,0-3.36,62.74c.18,18,2.13,36,3.88,53.9.9,9.24,5.45,17.14,9,25.39a22.89,22.89,0,0,1,2,9.89c0,1.37.14,3-1.43,3.63-1.77.72-2.92-.55-3.85-1.8-5-6.73-9.4-14-11.36-22-3.07-12.68-4.12-25.77-6.12-38.66-3.33-21.51-2.11-43.05-2.43-64.59a26.55,26.55,0,0,1,1.89-9.87,72,72,0,0,0,4.44-20.69c.08-1.28.62-3.26-1.15-3.53-1.55-.23-2.05,1.58-2.41,2.93a7.68,7.68,0,0,0-.28,4.32c1.39,5.5.93,11-3.32,15.35a5.24,5.24,0,0,0-1.89,3.46c-.84,12.14-2.52,24.29-2.37,36.41.16,13.5.92,27.11,4.58,40.29.91,3.26.42,6.77,2,9.94.49,1,.8,2.72-.76,3.15-1.21.33-1.63-1.18-2-2.13a11.58,11.58,0,0,1-.63-2.69c-2.28-14.86-6.27-29.55-6.09-44.67a241.67,241.67,0,0,1,2-30.82c1.51-10.84,4.14-21.39,6.82-31.88,2.73-10.69,7.29-20.91,12.22-30.87a202.4,202.4,0,0,1,49.76-63.67,213.29,213.29,0,0,1,76-40.49c7.23-2,14.69-3.24,22.09-4.66,11.94-2.29,23.87-2.52,35.89-2.43,20.79.15,40.89,4,60.64,10.59,30.66,10.2,56.88,27.31,79.31,50.19a191.7,191.7,0,0,1,41.43,63.46c.91,2.28,2.43,4.33,2.67,6.86C794.85,696.5,795.68,697.31,794.9,698.3Zm-188.2,159c7.31,0,12.8-4.71,12.87-11,.07-6.13-6.24-12-12.84-12-6.89,0-12.63,5.39-12.78,12C593.81,852.45,599.37,857.29,606.7,857.29Zm51.9,14.64c0,4.48,1.9,6.75,6.36,7.74,5.63,1.24,12.77-2.23,15.18-7.38a8.45,8.45,0,0,0-4.27-11.59C668.73,857.45,658.54,864.08,658.6,871.93Zm-173.78-32.3c-2.46-.33-4.18,1-5.39,3.52-3,6.34,4.19,16.3,11.58,16,3.82-.17,5.53-2.6,6-5.8C497.88,847.71,490.84,839.76,484.82,839.63Zm291.32-35.14c-.13-1.74.14-4.39-2.26-6-1.24-.82-2.65-.45-3.94.3-4,2.32-7,11-5.13,15.27,1.72,3.94,5.31,4.41,7.83.95A16.61,16.61,0,0,0,776.14,804.49ZM707,914.5c3.46.07,11.38-5.79,12.33-9.55.58-2.31,0-3.91-2.81-4.09-4.09-.26-11.86,5-13,9C702.71,912.52,703.22,914.5,707,914.5ZM559,942.36c1.93-.22,4.36.56,5.23-1.9.95-2.68-1.4-3.85-3.09-5-3.18-2.19-6.88-2.42-10.61-2.26-1.57.07-3.26.22-3.56,2.17a3.64,3.64,0,0,0,2.1,3.81C552.19,940.75,555.35,942.39,559,942.36ZM467.66,894.9a1.51,1.51,0,0,0,1.55-2.2,21.23,21.23,0,0,0-9-10.58c-1.43-.86-2.28,0-2.35,1.61C457.71,886.69,464.36,894.62,467.66,894.9Zm104-113.59a13.82,13.82,0,0,0,13.79-13.87c0-7.91-5.72-13.88-13.47-14-8-.12-13.51,5.44-13.56,13.66C558.41,775,564.26,781.31,571.7,781.31ZM652.77,671.2c.18-6.86-6.29-12.67-14.28-12.8-6.4-.12-12.16,5-12.19,10.78,0,6.41,6.8,12.23,14.31,12.21C647.05,681.37,652.63,676.7,652.77,671.2ZM527.5,651.53c-.13-4.18-3.57-7.26-8-7.18-7.05.14-13.88,6.63-13.75,13.08.08,4.46,3.16,7.31,7.8,7.24C520.05,664.57,527.67,657.4,527.5,651.53Zm-76.05,97.54c1,3.2,2.9,6.07,6.34,6.71s5.61-1.79,7.32-4.56c2.81-4.57,2.64-9.53,1.13-14.25-1.73-5.4-7.6-6.38-11.33-2.1A14.28,14.28,0,0,0,451,745,20.61,20.61,0,0,0,451.45,749.07Zm298.73-19.66c3.49,2.66,6.72,2.18,8.9-1.66,2.69-4.76,2-9.64-.79-14-2-3.26-4.62-6.45-9.37-5-4.43,1.37-4.33,5.06-4.36,9.37C744.1,722.51,746.22,726.39,750.18,729.41Zm-63-115.24c-2.33-.22-4.81-.32-6.27,1.92s-.86,4.9.58,7c3.09,4.46,7.76,6.62,13,7a5,5,0,0,0,5.7-4.69C700,619.85,693.82,614.78,687.2,614.17Zm113.56,109.7c2,11.68,3.85,23.41,3.11,35.27-.44,7.07-1,14.12-.79,21.21.07,2.21.1,4.48,2.4,6.89,1.43-23.7,3-46.52-5.23-68.79C800.41,720.26,800.46,722.09,800.76,723.87ZM435,686.55a3.37,3.37,0,0,0,3.7-1.34,25.82,25.82,0,0,0,5.76-11.44,2.64,2.64,0,0,0-1.16-3.22,2.87,2.87,0,0,0-3.42.58c-3.57,3.17-6.19,6.87-6.37,11.81C433.55,684.36,433.29,686,435,686.55Zm336.94-13.81c.76.72,1.73,1.51,2.85.94,1.31-.66,1.25-2,1-3.23-.87-4.88-3.56-8.67-7.16-11.9a2.13,2.13,0,0,0-2.51-.57c-1.09.56-1.34,1.59-1.12,3.73C765.79,665.55,768.4,669.41,771.89,672.74Z" transform="translate(-406.02 -564.53)"/></svg>